<svg width="512" height="512" viewBox="0 0 512 512" fill="none" xmlns="http://www.w3.org/2000/svg">
  <!-- Arka plan -->
  <rect width="512" height="512" rx="100" fill="#2ECC71"/>
  
  <!-- Masa (Table) -->
  <rect x="120" y="280" width="272" height="32" rx="16" fill="#FFFFFF"/>
  <!-- Masa ayakları -->
  <rect x="140" y="312" width="24" height="80" rx="12" fill="#27AE60"/>
  <rect x="348" y="312" width="24" height="80" rx="12" fill="#27AE60"/>
  
  <!-- Şans sembolü (Yıldız - büyük) -->
  <path d="M256 80 L280 160 L360 160 L296 208 L320 288 L256 248 L192 288 L216 208 L152 160 L232 160 Z" fill="#F39C12"/>
  
  <!-- Alt yıldız (küçük) -->
  <path d="M256 400 L272 440 L312 440 L280 464 L296 504 L256 480 L216 504 L232 464 L200 440 L240 440 Z" fill="#1ABC9C"/>
  
  <!-- "LT" harfleri (Lucky Table) -->
  <text x="256" y="360" font-family="Arial, sans-serif" font-size="80" font-weight="bold" fill="#FFFFFF" text-anchor="middle">LT</text>
</svg>

